<svg width="200" height="128" viewBox="0 0 200 128" fill="none" xmlns="http://www.w3.org/2000/svg">
<g clip-path="url(#clip0_823_9898)">
<path d="M167.744 43.1475C171.807 43.1475 175.1 39.8542 175.1 35.7915C175.1 31.7289 171.807 28.4355 167.744 28.4355C163.682 28.4355 160.388 31.7289 160.388 35.7915C160.388 39.8542 163.682 43.1475 167.744 43.1475Z" fill="#D6E8FC"/>
<g filter="url(#filter0_f_823_9898)">
<path d="M38.0448 91L0 117H166.333L126.781 91H38.0448Z" fill="url(#paint0_linear_823_9898)" fill-opacity="0.12"/>
</g>
<path d="M110.12 44.889H71.2721C70.0721 44.889 69.8161 41.757 69.8161 41.757C69.8366 41.0385 69.5723 40.341 69.0808 39.8166C68.5893 39.2921 67.9104 38.9831 67.1921 38.957H42.3561C41.6377 38.9831 40.9589 39.2921 40.4673 39.8166C39.9758 40.341 39.7115 41.0385 39.7321 41.757V86.385C39.7321 88.973 41.6921 91.073 44.1081 91.073H110.108C112.508 91.073 114.484 88.973 114.484 86.385V49.585C114.496 46.989 112.536 44.889 110.12 44.889Z" fill="#CDD2D9"/>
<path d="M129.464 47.0684H74.3519C72.8718 47.0684 71.6719 48.2682 71.6719 49.7484V91.4524C71.6719 92.9325 72.8718 94.1324 74.3519 94.1324H129.464C130.944 94.1324 132.144 92.9325 132.144 91.4524V49.7484C132.144 48.2682 130.944 47.0684 129.464 47.0684Z" fill="#F7F7F7"/>
<path d="M128.32 48.5996H84.7519C84.246 48.5996 83.8359 49.0088 83.8359 49.5136C83.8359 50.0184 84.246 50.4276 84.7519 50.4276H128.32C128.826 50.4276 129.236 50.0184 129.236 49.5136C129.236 49.0088 128.826 48.5996 128.32 48.5996Z" fill="#E8EBEE"/>
<path d="M113.8 74.0518C115.124 74.0518 116.196 72.979 116.196 71.6558C116.196 70.3325 115.124 69.2598 113.8 69.2598C112.477 69.2598 111.404 70.3325 111.404 71.6558C111.404 72.979 112.477 74.0518 113.8 74.0518Z" fill="#E8EBEE"/>
<path d="M122.484 74.0518C123.808 74.0518 124.88 72.979 124.88 71.6558C124.88 70.3325 123.808 69.2598 122.484 69.2598C121.161 69.2598 120.088 70.3325 120.088 71.6558C120.088 72.979 121.161 74.0518 122.484 74.0518Z" fill="#E8EBEE"/>
<path d="M110.096 51.6992H67.4358C66.1358 51.6992 65.8358 48.4992 65.8358 48.4992C65.8363 48.1207 65.7622 47.7458 65.6177 47.3959C65.4732 47.046 65.2612 46.728 64.9937 46.4602C64.7262 46.1923 64.4085 45.9798 64.0589 45.8348C63.7092 45.6899 63.3343 45.6152 62.9558 45.6152H35.6798C35.3013 45.6152 34.9264 45.6899 34.5768 45.8348C34.2271 45.9798 33.9094 46.1923 33.6419 46.4602C33.3744 46.728 33.1624 47.046 33.0179 47.3959C32.8734 47.7458 32.7993 48.1207 32.7998 48.4992V94.2432C32.7998 95.5163 33.3055 96.7372 34.2057 97.6373C35.1059 98.5375 36.3268 99.0432 37.5998 99.0432H110.096C111.369 99.0432 112.59 98.5375 113.49 97.6373C114.39 96.7372 114.896 95.5163 114.896 94.2432V56.5072C114.897 55.8762 114.773 55.2512 114.533 54.6679C114.292 54.0846 113.939 53.5545 113.493 53.1079C113.047 52.6614 112.517 52.3071 111.935 52.0654C111.352 51.8237 110.727 51.6992 110.096 51.6992Z" fill="#E9E9E9"/>
<path d="M75.4679 50.429C75.8744 50.429 76.2039 50.0995 76.2039 49.693C76.2039 49.2865 75.8744 48.957 75.4679 48.957C75.0615 48.957 74.7319 49.2865 74.7319 49.693C74.7319 50.0995 75.0615 50.429 75.4679 50.429Z" fill="#F2482C"/>
<path d="M78.1681 50.429C78.5746 50.429 78.9041 50.0995 78.9041 49.693C78.9041 49.2865 78.5746 48.957 78.1681 48.957C77.7617 48.957 77.4321 49.2865 77.4321 49.693C77.4321 50.0995 77.7617 50.429 78.1681 50.429Z" fill="#F2AC20"/>
<path d="M80.8717 50.429C81.2782 50.429 81.6077 50.0995 81.6077 49.693C81.6077 49.2865 81.2782 48.957 80.8717 48.957C80.4653 48.957 80.1357 49.2865 80.1357 49.693C80.1357 50.0995 80.4653 50.429 80.8717 50.429Z" fill="#5EC142"/>
<path d="M163.912 20.8008H124.524C123.071 20.8008 121.677 21.3775 120.649 22.4042C119.621 23.4309 119.042 24.8237 119.04 26.2768V31.5288C119.04 32.9833 119.618 34.3781 120.646 35.4066C121.675 36.435 123.07 37.0128 124.524 37.0128C124.572 37.0138 124.618 37.0337 124.652 37.0681C124.685 37.1025 124.704 37.1487 124.704 37.1968V40.9048C124.704 41.0094 124.733 41.1119 124.787 41.2013C124.842 41.2907 124.919 41.3634 125.012 41.4117C125.105 41.4599 125.209 41.4818 125.314 41.475C125.418 41.4681 125.518 41.4328 125.604 41.3728C125.604 41.3728 130.924 37.2528 131.776 37.0128C132.628 36.7728 164.096 37.0128 164.096 37.0128C164.793 37.0149 165.483 36.8796 166.127 36.6147C166.772 36.3498 167.357 35.9605 167.851 35.469C168.345 34.9775 168.737 34.3934 169.005 33.7503C169.273 33.1071 169.411 32.4175 169.412 31.7208V26.2768C169.411 25.556 169.268 24.8424 168.991 24.1769C168.714 23.5115 168.308 22.9071 167.797 22.3985C167.286 21.8899 166.68 21.487 166.014 21.2129C165.347 20.9387 164.633 20.7987 163.912 20.8008Z" fill="#F7F7F7"/>
<path d="M125.512 29.4004H156.996" stroke="#E8EBEE" stroke-width="2" stroke-miterlimit="10" stroke-linecap="round"/>
<path d="M161.928 30.9394C162.779 30.9394 163.468 30.2499 163.468 29.3994C163.468 28.5489 162.779 27.8594 161.928 27.8594C161.078 27.8594 160.388 28.5489 160.388 29.3994C160.388 30.2499 161.078 30.9394 161.928 30.9394Z" fill="#E8EBEE"/>
</g>
<defs>
<filter id="filter0_f_823_9898" x="-5.72" y="85.28" width="177.773" height="37.44" filterUnits="userSpaceOnUse" color-interpolation-filters="sRGB">
<feFlood flood-opacity="0" result="BackgroundImageFix"/>
<feBlend mode="normal" in="SourceGraphic" in2="BackgroundImageFix" result="shape"/>
<feGaussianBlur stdDeviation="2.86" result="effect1_foregroundBlur_823_9898"/>
</filter>
<linearGradient id="paint0_linear_823_9898" x1="83.3204" y1="91" x2="83.2898" y2="117" gradientUnits="userSpaceOnUse">
<stop stop-color="#595959"/>
<stop offset="1" stop-color="#D9D9D9" stop-opacity="0"/>
</linearGradient>
<clipPath id="clip0_823_9898">
<rect width="200" height="128" fill="white"/>
</clipPath>
</defs>
</svg>
